HIERARCHY
ROOT root
{
	OFFSET	0	13.1	24.9
	CHANNELS 6  Xposition Yposition Zposition Xrotation Yrotation Zrotation
	JOINT spine_1
	{
		OFFSET	0	9.99999	0
		CHANNELS 3  Xrotation Yrotation Zrotation
		JOINT spine_2
		{
			OFFSET	0	112	-10
			CHANNELS 3  Xrotation Yrotation Zrotation
			JOINT spine_3
			{
				OFFSET	0	206.5	19.3
				CHANNELS 3  Xrotation Yrotation Zrotation
				JOINT spine_4
				{
					OFFSET	0	110.4	14.6
					CHANNELS 3  Xrotation Yrotation Zrotation
					JOINT neck_1
					{
						OFFSET	0	71.8	-50.3
						CHANNELS 3  Xrotation Yrotation Zrotation
						JOINT neck_2
						{
							OFFSET	0	86.2	-25.8
							CHANNELS 3  Xrotation Yrotation Zrotation
							JOINT head_ee
							{
								OFFSET	0	179.8	-8.7
								CHANNELS 3  Xrotation Yrotation Zrotation
								End Site
								{
									OFFSET	1	0	0
								}
							}
						}
					}
					JOINT left_clavicle
					{
						OFFSET	-43.2	22.4	-70.8
						CHANNELS 3  Xrotation Yrotation Zrotation
						JOINT left_shoulder
						{
							OFFSET	-93.9	-5.79999	48.7
							CHANNELS 3  Xrotation Yrotation Zrotation
							JOINT left_elbow
							{
								OFFSET	-291.4	-30.8	15.2
								CHANNELS 3  Xrotation Yrotation Zrotation
								JOINT left_lowarm_twist
								{
									OFFSET	-110.7	-3.89999	13.6
									CHANNELS 3  Xrotation Yrotation Zrotation
									JOINT left_hand
									{
										OFFSET	-110.7	-3.89999	13.6
										CHANNELS 3  Xrotation Yrotation Zrotation
										JOINT left_ee
										{
											OFFSET	-80.8	-5.10001	12.1
											CHANNELS 3  Xrotation Yrotation Zrotation
											End Site
											{
												OFFSET	1	0	0
											}
										}
									}
								}
							}
						}
					}
					JOINT right_clavicle
					{
						OFFSET	43.2	22.4	-70.8
						CHANNELS 3  Xrotation Yrotation Zrotation
						JOINT right_shoulder
						{
							OFFSET	93.9	-5.79999	48.7
							CHANNELS 3  Xrotation Yrotation Zrotation
							JOINT right_elbow
							{
								OFFSET	291.4	-30.8	15.2
								CHANNELS 3  Xrotation Yrotation Zrotation
								JOINT right_lowarm_twist
								{
									OFFSET	110.7	-3.89999	13.6
									CHANNELS 3  Xrotation Yrotation Zrotation
									JOINT right_hand
									{
										OFFSET	110.7	-3.89999	13.6
										CHANNELS 3  Xrotation Yrotation Zrotation
										JOINT right_ee
										{
											OFFSET	80.8	-5.10001	12.1
											CHANNELS 3  Xrotation Yrotation Zrotation
											End Site
											{
												OFFSET	1	0	0
											}
										}
									}
								}
							}
						}
					}
				}
			}
		}
	}
	JOINT left_hip
	{
		OFFSET	-82.8	-127.5	0.300001
		CHANNELS 3  Xrotation Yrotation Zrotation
		JOINT left_knee
		{
			OFFSET	-28.2	-396.7	2.2
			CHANNELS 3  Xrotation Yrotation Zrotation
			JOINT left_ankle
			{
				OFFSET	-11.7	-411.3	35.4
				CHANNELS 3  Xrotation Yrotation Zrotation
				JOINT left_toes
				{
					OFFSET	0	-60	-88.6
					CHANNELS 3  Xrotation Yrotation Zrotation
					JOINT left_foot_ee
					{
						OFFSET	-22.5	-16.5	-42.2
						CHANNELS 3  Xrotation Yrotation Zrotation
						End Site
						{
							OFFSET	1	0	0
						}
					}
				}
			}
		}
	}
	JOINT right_hip
	{
		OFFSET	82.8	-127.5	0.300001
		CHANNELS 3  Xrotation Yrotation Zrotation
		JOINT right_knee
		{
			OFFSET	28.2	-396.7	2.2
			CHANNELS 3  Xrotation Yrotation Zrotation
			JOINT right_ankle
			{
				OFFSET	11.7	-411.3	35.4
				CHANNELS 3  Xrotation Yrotation Zrotation
				JOINT right_toes
				{
					OFFSET	0	-60	-88.6
					CHANNELS 3  Xrotation Yrotation Zrotation
					JOINT right_foot_ee
					{
						OFFSET	22.5	-16.5	-42.2
						CHANNELS 3  Xrotation Yrotation Zrotation
						End Site
						{
							OFFSET	1	0	0
						}
					}
				}
			}
		}
	}
}
MOTION
Frames: 11
Frame Time: 0.02
1341.52 699.54 -1521.27 -53.7267 87.227 50.4792 2.28459 0.0813899 2.31957 2.28758 -0.0663346 2.32004 2.28445 -0.462436 2.27448 2.27724 -0.0975214 2.31894 -22.5782 0.992142 -5.01735 -22.5406 4.23875 -4.19601 -0.0 0.0 -0.0 -4.42397 6.29507 -7.31308 9.94606 -30.913 63.0291 2.46522 -50.6791 1.16753 -32.1799 -2.16045 3.44435 0.317726 3.55862 3.59246 -0.0 0.0 -0.0 7.72881 -6.41747 -14.8697 -47.1194 44.6628 -53.6093 0.666326 18.267 -0.107129 8.50418 -0.221095 1.06283 6.84275 -7.58661 -57.4191 0.0 0.0 0.0 -18.1628 -16.6164 5.22015 2.52477 -0.112174 -0.371142 39.3746 16.7604 -4.90464 -36.3556 0.0 0.0 -0.0 0.0 -0.0 23.9639 4.24224 -0.739906 7.41684 0.375647 1.07488 -0.0432849 -11.5284 -0.00634446 1.3455 -0.0 -0.0 0.0 0.0 0.0 
1319.45 694.831 -1521.89 -77.8823 88.2799 74.7874 2.40826 -0.0243842 2.331 2.41127 -0.172621 2.32473 2.40367 -0.563329 2.26207 2.39659 -0.199109 2.32261 -21.2322 -0.287896 -7.08622 -21.1062 2.8944 -6.70351 -0.0 0.0 -0.0 -4.44297 6.19717 -7.3693 8.3638 -31.477 63.4534 2.43648 -50.3496 1.14535 -33.425 -2.28058 3.54957 0.283397 4.00556 3.54862 -0.0 0.0 -0.0 8.29779 -7.75397 -15.8683 -48.8672 44.2987 -50.5227 0.677013 18.5401 -0.110503 10.1327 -0.245309 1.26943 6.75604 -6.72067 -55.9226 0.0 0.0 0.0 -18.9293 -15.2479 5.13178 0.905139 -0.0383291 -0.133608 39.3083 19.242 -4.94717 -34.2933 0.0 0.0 -0.0 0.0 -0.0 22.7435 4.37633 -0.412874 5.28101 0.25321 0.77036 -2.73597 -8.47243 -0.402841 0.819581 -0.0 -0.0 0.0 0.0 0.0 
1287.67 702.062 -1524.53 -144.493 88.6087 141.117 2.39809 0.0450626 2.42859 2.40137 -0.10952 2.42654 2.39613 -0.518642 2.37302 2.3883 -0.137474 2.42511 -24.3375 0.0305899 -7.32262 -24.2094 3.22438 -6.78467 -0.0 0.0 -0.0 -4.74259 8.1038 -7.49786 6.84581 -31.5816 64.6687 2.48454 -50.8981 1.1825 -35.2166 -2.4574 3.69637 0.311829 3.72123 3.62007 -0.0 0.0 -0.0 8.33977 -10.669 -15.7473 -50.7265 44.3578 -49.4331 0.683387 18.7026 -0.112538 9.19685 -0.232112 1.15062 6.46498 -6.82812 -52.5836 0.0 0.0 0.0 -17.9394 -14.6004 4.98374 -6.15145 0.203955 0.921584 36.0415 23.2313 -4.72237 -34.0187 0.0 0.0 -0.0 0.0 -0.0 21.1432 4.42096 -0.370368 -0.683742 -0.0275493 -0.101311 -2.77134 -6.62308 -0.408301 0.837878 -0.0 -0.0 0.0 0.0 0.0 
1257.93 705.943 -1523.82 175.464 87.9651 -179.386 2.35011 -0.0486373 2.48248 2.35352 -0.206456 2.47436 2.34397 -0.624557 2.40317 2.33599 -0.237306 2.47159 -25.4308 -0.380376 -7.96308 -25.2681 2.55557 -7.59971 -0.0 0.0 -0.0 -4.92628 9.75955 -7.44623 4.15249 -31.3456 65.0249 2.46585 -50.6864 1.16802 -36.5375 -2.59068 3.80105 0.344555 3.89455 3.90738 -0.0 0.0 -0.0 8.37631 -12.302 -15.6817 -52.469 44.1553 -47.9164 0.723708 19.7229 -0.125808 8.38955 -0.219169 1.04831 6.17961 -6.97892 -49.5738 0.0 0.0 0.0 -17.309 -13.2514 5.1257 -10.5543 0.288634 1.59174 35.071 24.9475 -4.66798 -33.3497 0.0 0.0 -0.0 0.0 -0.0 19.9464 4.61567 0.452962 -4.94966 -0.171913 -0.739937 -3.18963 -4.75094 -0.471103 1.01428 -0.0 -0.0 0.0 0.0 0.0 
1235.9 709.78 -1525.55 156.202 87.3954 -160.186 2.29983 0.00908893 2.45009 2.30316 -0.146788 2.44571 2.29634 -0.56281 2.38463 2.28845 -0.179257 2.44355 -26.1889 -0.863909 -7.69326 -26.028 1.41062 -7.6159 -0.0 0.0 -0.0 -4.85936 9.98938 -7.2738 1.39205 -30.9963 64.8981 2.45996 -50.6192 1.16346 -37.2921 -2.66789 3.85947 0.364023 3.41927 3.84189 -0.0 0.0 -0.0 8.35093 -13.8293 -15.5028 -50.7856 44.5932 -47.2198 0.707364 19.3109 -0.120347 8.61316 -0.222898 1.07663 5.84123 -6.35027 -45.9262 0.0 0.0 0.0 -16.6475 -12.5284 5.22048 -13.6875 0.317421 2.07155 33.7321 22.1048 -4.4533 -32.9014 0.0 0.0 -0.0 0.0 -0.0 18.5545 4.51311 0.901955 -7.46042 -0.234509 -1.12013 -0.948276 -4.96754 -0.139337 -0.503699 0.0 0.0 0.0 0.0 0.0 
1218.81 713.223 -1529.38 155.29 86.6714 -158.86 2.27249 -0.00974263 2.39238 2.27566 -0.161912 2.38691 2.2684 -0.568789 2.32384 2.26092 -0.194754 2.38446 -26.5957 -1.07482 -8.64602 -26.3907 1.32352 -8.62866 -0.0 0.0 -0.0 -4.88625 8.31609 -7.70981 -1.57054 -30.6264 64.8377 2.40305 -49.9604 1.11968 -37.5698 -2.6965 3.88071 0.378046 3.09387 3.80162 -0.0 0.0 -0.0 8.00225 -14.5292 -14.8425 -49.6674 45.4205 -46.7128 0.813279 21.9431 -0.157669 7.62078 -0.205505 0.951062 5.4553 -7.35526 -42.6944 0.0 0.0 0.0 -14.9776 -12.0971 5.03375 -15.6287 0.322081 2.36934 31.1744 26.1599 -4.27218 -32.8901 0.0 0.0 -0.0 0.0 -0.0 17.7495 4.67883 0.941442 -9.61372 -0.274875 -1.44807 -3.17454 -3.01496 -0.470016 0.965977 -0.0 -0.0 0.0 0.0 0.0 
1197.26 713.412 -1537.9 149.403 88.3617 -153.286 2.23488 0.051477 2.2808 2.23777 -0.0937223 2.27946 2.23364 -0.484463 2.22938 2.22672 -0.126391 2.27788 -26.6487 0.21501 -6.68859 -26.5451 3.03499 -6.12301 -0.0 0.0 -0.0 -5.04319 9.88116 -7.62523 -2.23411 -28.797 65.658 2.20811 -47.5596 0.973058 -37.876 -2.72816 3.90398 0.322122 3.78684 3.715 -0.0 0.0 -0.0 8.34159 -14.9834 -15.378 -48.3081 45.885 -45.8882 0.818261 22.0647 -0.159536 7.05938 -0.194703 0.880163 5.43414 -6.13206 -42.0426 0.0 0.0 0.0 -13.0347 -11.6278 5.31127 -19.1161 0.305109 2.90407 33.4753 25.8668 -4.52201 -32.4771 0.0 0.0 -0.0 0.0 -0.0 16.1686 6.88936 0.215883 -8.27505 -0.25123 -1.24402 -0.445262 -1.91039 -0.0656537 -1.65133 0.0 0.0 0.0 0.0 0.0 
1183.42 719.365 -1538.51 83.2517 89.4769 -87.5696 2.23519 0.225988 2.14997 2.23776 0.0887543 2.15999 2.24083 -0.283739 2.14312 2.23442 0.0582056 2.16103 -27.4028 1.26206 -4.32025 -27.3897 4.06425 -3.34786 -0.0 0.0 -0.0 -4.80703 9.42645 -7.31146 -4.03594 -27.7175 66.2991 1.9489 -43.9875 0.787224 -37.8045 -2.72075 3.89856 0.295756 3.86088 3.57101 -0.0 0.0 -0.0 7.96551 -14.8442 -14.753 -46.5155 46.1513 -45.3642 0.857913 23.0245 -0.174739 5.5588 -0.162423 0.691199 4.98856 -6.47421 -38.2742 0.0 0.0 0.0 -8.21449 -10.0547 7.55477 -25.2531 0.196423 3.83908 35.0053 27.2724 -4.73184 -32.3822 0.0 0.0 -0.0 0.0 -0.0 14.3725 7.88536 0.391771 -6.53002 -0.213258 -0.978935 -0.194445 -2.52704 -0.0286199 -3.30439 0.0 0.0 0.0 0.0 0.0 
1165.41 725.593 -1533.45 103.368 89.0471 -109.481 2.231 0.114606 2.42689 2.23428 -0.0400087 2.42926 2.23216 -0.457372 2.38618 2.22422 -0.0748958 2.42844 -27.2176 1.19636 -5.96402 -27.1675 4.58026 -4.92226 -0.0 0.0 -0.0 -4.68878 8.93414 -7.21266 -6.39725 -26.805 66.5952 1.79786 -41.6845 0.684508 -37.8771 -2.72827 3.90406 0.272726 3.89009 3.43079 -0.0 0.0 -0.0 8.01127 -14.9914 -14.8175 -44.67 46.4352 -45.5058 1.00674 26.5054 -0.237112 3.57674 -0.112218 0.442999 4.71666 -7.31598 -36.3026 0.0 0.0 0.0 -5.0742 -9.12514 8.3743 -30.0264 0.0430526 4.55537 34.387 26.5153 -4.64087 -32.6032 0.0 0.0 -0.0 0.0 -0.0 12.3221 8.42873 0.248154 -7.25806 -0.230082 -1.08939 4.73315 -7.42629 0.684156 -3.61782 0.0 0.0 0.0 0.0 0.0 
1148.81 725.2 -1536.51 81.6779 89.2246 -86.5037 2.15804 0.269527 2.40125 2.16124 0.116229 2.41352 2.16587 -0.303394 2.3972 2.15786 0.0788929 2.41503 -28.5588 0.36595 -6.83323 -28.4531 3.15413 -6.20537 -0.0 0.0 -0.0 -4.6263 7.80895 -7.35286 -10.0273 -27.3133 66.89 1.6674 -39.5528 0.59956 -37.6388 -2.70362 3.88597 0.782265 3.9182 6.81768 -0.0 0.0 -0.0 7.79921 -14.1276 -14.5295 -42.0427 47.5473 -46.1568 1.17224 30.1423 -0.315671 3.77203 -0.117546 0.467375 4.39765 -7.26997 -33.7054 0.0 0.0 0.0 -1.93661 -8.9169 7.41613 -34.3501 -0.146979 5.19145 35.1254 26.2349 -4.71189 -33.2332 0.0 0.0 -0.0 0.0 -0.0 10.4502 7.87679 0.597114 -4.73905 -0.165906 -0.708173 3.78847 -5.50592 0.54965 -5.49114 0.0 0.0 0.0 0.0 0.0 
1129.93 733.482 -1539.12 62.1261 88.4962 -67.6842 2.08977 0.592291 2.7373 2.09384 0.416978 2.76941 2.11392 -0.0710648 2.7997 2.10318 0.371814 2.77583 -29.4401 0.162693 -7.87965 -29.2897 3.01833 -7.32716 -0.0 0.0 -0.0 -4.65394 7.59042 -7.45195 -11.5329 -26.9168 66.8561 1.55366 -37.5805 0.528642 -36.8954 -2.6272 3.82889 0.638503 3.93382 5.86956 -0.0 0.0 -0.0 8.13057 -14.2037 -15.0899 -40.2455 47.8115 -45.9024 1.19445 30.6114 -0.326903 3.11705 -0.0993486 0.385689 4.13368 -7.80594 -31.8164 0.0 0.0 0.0 2.56729 -7.66137 6.72891 -35.8902 -0.226215 5.41439 37.3243 25.7136 -4.92561 -33.1191 0.0 0.0 -0.0 0.0 -0.0 9.53282 8.64415 0.595503 -5.71478 -0.192754 -0.855507 2.93747 -4.95762 0.427409 -5.73089 0.0 0.0 0.0 0.0 0.0 
